<?xml version="1.0" encoding="UTF-8" standalone="no"?>
<svg
   width="1792"
   height="1792"
   id="github"
   version="1.1"
   sodipodi:docname="github.svg"
   inkscape:version="1.2.2 (b0a8486541, 2022-12-01)"
   xmlns:inkscape="http://www.inkscape.org/namespaces/inkscape"
   xmlns:sodipodi="http://sodipodi.sourceforge.net/DTD/sodipodi-0.dtd"
   xmlns="http://www.w3.org/2000/svg"
   xmlns:svg="http://www.w3.org/2000/svg">
  <defs
     id="defs60" />
  <sodipodi:namedview
     id="namedview58"
     pagecolor="#ffffff"
     bordercolor="#999999"
     borderopacity="1"
     inkscape:showpageshadow="0"
     inkscape:pageopacity="0"
     inkscape:pagecheckerboard="0"
     inkscape:deskcolor="#d1d1d1"
     showgrid="false"
     inkscape:zoom="0.43638393"
     inkscape:cx="896"
     inkscape:cy="896"
     inkscape:window-width="2560"
     inkscape:window-height="1011"
     inkscape:window-x="0"
     inkscape:window-y="0"
     inkscape:window-maximized="1"
     inkscape:current-layer="github" />
  <path
     d="M1664 896q0 251-146.5 451.5T1139 1625q-27 5-39.5-7t-12.5-30v-211q0-97-52-142 57-6 102.5-18t94-39 81-66.5 53-105T1386 856q0-121-79-206 37-91-8-204-28-9-81 11t-92 44l-38 24q-93-26-192-26t-192 26q-16-11-42.5-27T578 459.5 492 446q-44 113-7 204-79 85-79 206 0 85 20.5 150t52.5 105 80.5 67 94 39 102.5 18q-40 36-49 103-21 10-45 15t-57 5-65.5-21.5T484 1274q-19-32-48.5-52t-49.5-24l-20-3q-21 0-29 4.5t-5 11.5 9 14 13 12l7 5q22 10 43.5 38t31.5 51l10 23q13 38 44 61.5t67 30 69.5 7 55.5-3.5l23-4q0 38 .5 89t.5 54q0 18-13 30t-40 7q-232-77-378.5-277.5T128 896q0-209 103-385.5T510.5 231 896 128t385.5 103T1561 510.5 1664 896z"
     id="path55" />
  <path
     style="fill:#ffffff;stroke-width:2.29156"
     d="m 648.51151,1622.3526 c -2.52072,-1.1294 -14.89514,-5.8047 -27.49872,-10.3895 -31.45441,-11.4424 -95.59314,-42.7833 -126.03581,-61.5865 -151.40987,-93.5197 -271.65145,-244.7928 -327.40191,-411.8965 -26.69633,-80.0183 -36.95812,-147.67439 -36.95215,-243.62588 0.004,-66.80876 2.55927,-96.34149 12.88703,-148.95141 C 179.95324,560.25957 286.57829,392.9446 441.55109,278.21968 608.43696,154.67562 817.46681,105.32236 1026.6189,140.08149 1221.3823,172.44935 1401.9869,285.49805 1518.5442,448 c 76.2802,106.34846 120.7807,219.28072 138.6074,351.75448 5.1452,38.23536 5.8912,145.74375 1.272,183.3248 -21.4494,174.51042 -92.7591,323.58212 -214.7078,448.84292 -83.3038,85.5663 -175.6194,145.3682 -285.1411,184.7141 -20.16,7.2425 -25.9999,8.4214 -37.57,7.5845 -12.2017,-0.8826 -14.5219,-1.8883 -21.2205,-9.1977 -4.1365,-4.5137 -8.6217,-12.1711 -9.9671,-17.0164 -1.5925,-5.7351 -2.4507,-51.472 -2.459,-131.0483 -0.011,-113.7726 -0.3359,-123.8505 -4.6777,-145.514 -5.5203,-27.5436 -17.5163,-54.3794 -32.5699,-72.8613 l -10.4584,-12.84 20.9821,-2.7928 c 58.5978,-7.7995 107.31,-21.8184 151.8463,-43.6998 35.4163,-17.4006 62.2491,-36.5396 86.2102,-61.4908 35.4435,-36.9082 56.9935,-78.0926 72.8346,-139.19463 10.7578,-41.49477 14.5027,-74.22429 14.524,-126.93847 0.021,-51.22948 -3.4997,-75.5707 -15.9864,-110.53036 -11.7063,-32.77522 -34.6802,-72.10806 -54.1383,-92.68877 l -6.893,-7.29071 6.0242,-21.35379 c 14.7575,-52.31047 11.6244,-110.8118 -9.0167,-168.35826 -6.5549,-18.2748 -7.7472,-19.0727 -28.4943,-19.06844 -34.2749,0.007 -103.9695,27.46726 -162.6564,64.08795 -19.5457,12.19651 -27.7926,16.14328 -32.0818,15.35352 -3.1754,-0.58467 -20.2102,-4.21549 -37.8552,-8.06849 C 995.6784,502.94987 953.8987,498.75544 896,498.75544 c -57.60668,0 -96.82295,3.9284 -147.80563,14.80605 -18.27519,3.8992 -35.98255,7.60518 -39.34973,8.23554 -4.3184,0.80844 -9.04435,-0.83987 -16.04092,-5.59472 C 640.6502,480.7587 558.21084,445.9535 519.70001,443.11939 c -25.86604,-1.90355 -28.50438,-0.32691 -35.63897,21.29753 -19.70684,59.72995 -22.03649,113.41518 -7.1745,165.33217 l 6.10881,21.33987 -6.90651,7.30463 c -19.47069,20.59301 -42.44177,59.9173 -54.15178,92.70265 -12.32523,34.50776 -15.97509,59.41214 -16.03087,109.38458 -0.0724,64.82285 6.38354,107.44085 24.02612,158.60628 24.9297,72.2988 61.81101,119.7607 120.42063,154.9671 51.39857,30.8747 110.17324,50.0134 181.22386,59.0114 l 21.19318,2.6839 -7.52251,8.3265 c -17.37875,19.2362 -33.27196,53.895 -37.27188,81.2799 -1.52008,10.4071 -2.2872,11.4378 -11.56844,15.5433 -30.77063,13.6113 -90.51854,19.9601 -116.57028,12.3866 -38.51439,-11.1964 -69.008,-36.8773 -94.01689,-79.1784 -4.8434,-8.1923 -17.6545,-23.6603 -28.46909,-34.3734 -32.29734,-31.994 -70.83986,-48.6405 -104.56174,-45.1601 -16.32706,1.6851 -21.65872,4.8397 -21.65872,12.8151 0,10.2257 11.66107,23.672 32.3905,37.3492 30.41283,20.0663 51.20573,45.8942 70.94221,88.1206 25.46255,54.4775 26.85912,56.9081 40.32657,70.1848 23.82139,23.4839 47.09214,35.8583 81.3453,43.2559 37.57022,8.114 117.09874,8.3997 144.50949,0.519 3.76139,-1.0814 4.01023,3.5268 4.01023,74.2626 0,74.0368 -0.0953,75.5957 -5.21311,85.2736 -6.77067,12.8035 -17.14972,18.4095 -33.70766,18.2063 -6.95163,-0.085 -14.70173,-1.0791 -17.22245,-2.2084 z"
     id="path304" />
</svg>
